<!--?xml version="1.0" encoding="utf-8"?-->
<!-- Generator: Adobe Illustrator 18.1.1, SVG Export Plug-In . SVG Version: 6.00 Build 0)  -->

<svg version="1.1" id="_x31_0" xmlns="http://www.w3.org/2000/svg" xmlns:xlink="http://www.w3.org/1999/xlink" x="0px" y="0px" viewBox="0 0 512 512" style="width: 256px; height: 256px; opacity: 1;" xml:space="preserve">
<style type="text/css">
	.st0{fill:#374149;}
</style>
<g>
	<polygon class="st0" points="0,33.978 0,103.603 0,214.798 69.625,214.798 69.625,103.603 180.82,103.603 180.82,33.978 
		69.625,33.978 	" style="fill: rgb(255, 255, 255);"></polygon>
	<polygon class="st0" points="331.176,103.526 331.176,103.603 442.371,103.603 442.371,214.041 442.371,214.721 442.371,214.721 
		442.371,214.798 512,214.798 512,103.603 512,34.478 512,34.057 512,34.057 512,33.978 442.371,33.978 331.176,33.978 
		331.176,103.099 331.176,103.526 	" style="fill: rgb(255, 255, 255);"></polygon>
	<polygon class="st0" points="69.625,297.201 0,297.201 0,408.396 0,478.022 69.625,478.022 180.82,478.022 180.82,408.396 
		69.625,408.396 	" style="fill: rgb(255, 255, 255);"></polygon>
	<polygon class="st0" points="512,297.283 512,297.201 442.371,297.201 442.371,407.798 442.371,408.396 331.176,408.396 
		331.176,477.518 331.176,477.943 331.176,477.943 331.176,478.022 442.371,478.022 512,478.022 512,408.396 512,297.959 
		512,297.283 	" style="fill: rgb(255, 255, 255);"></polygon>
</g>
</svg>
